<svg
  viewBox="0 0 100 100"
  xmlns="http://www.w3.org/2000/svg"
>
  <path 
    fill="#10b981" 
    d="M75 35 C85 35 90 45 90 55 C90 75 70 85 50 85 C30 85 10 75 10 55 C10 40 25 30 40 30 C45 30 50 25 55 20 C60 15 70 15 75 20 L75 35 Z" 
  />
  <path fill="#10b981" d="M35 30 L25 15 L45 25 Z" />
  <path fill="#10b981" d="M50 22 L45 5 L60 18 Z" />
  <path fill="#10b981" d="M65 20 L65 2 L75 15 Z" />
  <circle cx="70" cy="45" r="4" fill="white" />
  <circle cx="71" cy="45" r="2" fill="black" />
  <path
    d="M65 65 Q75 65 85 55"
    fill="none"
    stroke="white"
    strokeWidth="3"
    strokeLinecap="round"
  />
  <rect x="25" y="55" width="30" height="20" rx="2" fill="#059669" />
</svg>
