<svg xmlns:xlink="http://www.w3.org/1999/xlink" width="40" height="43" viewBox="0 0 40 43" fill="none" xmlns="http://www.w3.org/2000/svg"><path d="M19.6145 4.3812C16.8264 4.33283 14.5863 6.49325 14.5218 9.21796C14.4896 10.6206 15.0697 11.6363 15.8433 12.6843C16.5202 13.6033 17.0198 13.7 17.3099 15.0704" stroke="#14A077" stroke-width="2px" stroke-miterlimit="10" stroke-linecap="round" stroke-linejoin="round" fill="none"></path><path d="M19.6143 4.3812C22.4024 4.33283 24.6425 6.49325 24.707 9.21796C24.7392 10.6206 24.159 11.6363 23.3855 12.6843C22.7086 13.6033 22.0962 13.7 21.8222 15.0704" stroke="#14A077" stroke-width="2px" stroke-miterlimit="10" stroke-linecap="round" stroke-linejoin="round" fill="none"></path><path d="M21.8226 15.0545H21.8065H17.3906" stroke="#14A077" stroke-width="2px" stroke-miterlimit="10" stroke-linecap="round" stroke-linejoin="round" fill="none"></path><path d="M19.6143 18.4241H20.8069L21.8222 16.7312V15.0545" stroke="#14A077" stroke-width="2px" stroke-miterlimit="10" stroke-linecap="round" stroke-linejoin="round" fill="none"></path><path d="M21.1943 7.0412C21.8873 7.42814 22.3869 8.07304 22.532 8.8308" stroke="#14A077" stroke-width="2px" stroke-miterlimit="10" stroke-linecap="round" stroke-linejoin="round" fill="none"></path><path d="M17.3105 15.0543V16.731L18.4387 18.4239H19.5668" stroke="#14A077" stroke-width="2px" stroke-miterlimit="10" stroke-linecap="round" stroke-linejoin="round" fill="none"></path><path d="M19.5654 1.01172V2.1403" stroke="#14A077" stroke-width="2px" stroke-miterlimit="10" stroke-linecap="round" stroke-linejoin="round" fill="none"></path><path d="M13.6035 3.47858L14.3932 4.26858" stroke="#14A077" stroke-width="2px" stroke-miterlimit="10" stroke-linecap="round" stroke-linejoin="round" fill="none"></path><path d="M11.1211 9.44366H12.2492" stroke="#14A077" stroke-width="2px" stroke-miterlimit="10" stroke-linecap="round" stroke-linejoin="round" fill="none"></path><path d="M13.6035 15.3929L14.3932 14.6029" stroke="#14A077" stroke-width="2px" stroke-miterlimit="10" stroke-linecap="round" stroke-linejoin="round" fill="none"></path><path d="M25.5451 15.3929L24.7393 14.6029" stroke="#14A077" stroke-width="2px" stroke-miterlimit="10" stroke-linecap="round" stroke-linejoin="round" fill="none"></path><path d="M28.011 9.44366H26.8828" stroke="#14A077" stroke-width="2px" stroke-miterlimit="10" stroke-linecap="round" stroke-linejoin="round" fill="none"></path><path d="M25.5451 3.47858L24.7393 4.26858" stroke="#14A077" stroke-width="2px" stroke-miterlimit="10" stroke-linecap="round" stroke-linejoin="round" fill="none"></path><path d="M8.73595 28.7426C10.5161 28.7426 11.9592 27.2989 11.9592 25.5181C11.9592 23.7372 10.5161 22.2935 8.73595 22.2935C6.95579 22.2935 5.5127 23.7372 5.5127 25.5181C5.5127 27.2989 6.95579 28.7426 8.73595 28.7426Z" stroke="#14A077" stroke-width="2px" stroke-miterlimit="10" stroke-linecap="round" stroke-linejoin="round" fill="none"></path><path d="M7.44651 33.2568L8.75192 36.7231C9.13872 37.7388 10.1057 38.416 11.1855 38.416H15.7464C16.5038 38.416 17.1163 37.8033 17.1163 37.0456C17.1163 36.3523 16.6005 35.7719 15.9237 35.6913L12.3942 35.256C12.1363 35.2237 11.9268 35.0464 11.8462 34.7884C11.6367 33.9984 11.1532 32.2894 10.6698 31.3221C10.0251 30.0323 9.38046 28.7425 7.12418 28.7425C4.22325 28.7425 3.5786 30.6772 2.93395 33.2568C2.2893 35.8364 1 40.9956 1 40.9956" stroke="#14A077" stroke-width="2px" stroke-miterlimit="10" stroke-linecap="round" stroke-linejoin="round" fill="none"></path><path d="M8.73645 37.1262L8.0918 40.9956" stroke="#14A077" stroke-width="2px" stroke-miterlimit="10" stroke-linecap="round" stroke-linejoin="round" fill="none"></path><path d="M30.5088 37.1262L31.2985 40.9956" stroke="#14A077" stroke-width="2px" stroke-miterlimit="10" stroke-linecap="round" stroke-linejoin="round" fill="none"></path><path d="M13.249 38.4161H19.6955" stroke="#14A077" stroke-width="2px" stroke-miterlimit="10" stroke-linecap="round" stroke-linejoin="round" fill="none"></path><path d="M30.6539 28.7426C32.4341 28.7426 33.8772 27.2989 33.8772 25.5181C33.8772 23.7372 32.4341 22.2935 30.6539 22.2935C28.8738 22.2935 27.4307 23.7372 27.4307 25.5181C27.4307 27.2989 28.8738 28.7426 30.6539 28.7426Z" stroke="#14A077" stroke-width="2px" stroke-miterlimit="10" stroke-linecap="round" stroke-linejoin="round" fill="none"></path><path d="M19.6949 28.7426C21.4751 28.7426 22.9182 27.2989 22.9182 25.5181C22.9182 23.7372 21.4751 22.2935 19.6949 22.2935C17.9148 22.2935 16.4717 23.7372 16.4717 25.5181C16.4717 27.2989 17.9148 28.7426 19.6949 28.7426Z" stroke="#14A077" stroke-width="2px" stroke-miterlimit="10" stroke-linecap="round" stroke-linejoin="round" fill="none"></path><path d="M31.9432 33.2569L30.6378 36.7233C30.251 37.739 29.284 38.4161 28.2042 38.4161H23.6433C22.8859 38.4161 22.2734 37.8035 22.2734 37.0457C22.2734 36.3524 22.7892 35.772 23.466 35.6914L26.9955 35.2561C27.2534 35.2239 27.4629 35.0465 27.5435 34.7886C27.753 33.9986 28.2365 32.3057 28.7199 31.3383C29.3646 30.0485 30.0092 28.7587 32.2655 28.7587C35.1665 28.7587 35.8111 30.6934 36.4558 33.273C37.1004 35.8526 38.3897 41.0119 38.3897 41.0119" stroke="#14A077" stroke-width="2px" stroke-miterlimit="10" stroke-linecap="round" stroke-linejoin="round" fill="none"></path><path d="M26.1418 38.4161H19.6953" stroke="#14A077" stroke-width="2px" stroke-miterlimit="10" stroke-linecap="round" stroke-linejoin="round" fill="none"></path><path d="M14.5381 35.1915V33.2568C14.5381 30.7578 16.8427 28.7425 19.6953 28.7425C22.5479 28.7425 24.8525 30.7578 24.8525 33.2568V35.1915" stroke="#14A077" stroke-width="2px" stroke-miterlimit="10" stroke-linecap="round" stroke-linejoin="round" fill="none"></path></svg>