<svg xmlns:xlink="http://www.w3.org/1999/xlink" xmlns="http://www.w3.org/2000/svg" width="13" height="14" viewBox="0 0 13 14" fill="none"><path fill-rule="evenodd" clip-rule="evenodd" d="M2.94418 8.42155L0.367213 6.2883C-0.11917 5.89933 0.094156 5.11714 0.711378 5.02896L4.36635 4.86612L5.92719 0.953019C6.03598 0.736138 6.25713 0.599609 6.49961 0.599609C6.74209 0.599609 6.96324 0.736849 7.07203 0.953019L8.63286 4.86612L12.2878 5.02896C12.9051 5.11714 13.1184 5.89933 12.632 6.2883L10.055 8.42155L10.7583 12.5864C10.8394 13.1545 10.2492 13.5798 9.73647 13.3231L6.49961 11.2659L3.26275 13.3224C2.74935 13.5791 2.15986 13.1538 2.24092 12.5857L2.94418 8.42155Z" fill="#FFB321"></path></svg>