<svg xmlns:xlink="http://www.w3.org/1999/xlink" width="42" height="43" viewBox="0 0 42 43" fill="none" xmlns="http://www.w3.org/2000/svg"><path d="M10.1242 26.6601C12.2169 26.6601 13.9133 24.9714 13.9133 22.8883C13.9133 20.8052 12.2169 19.1165 10.1242 19.1165C8.03144 19.1165 6.33496 20.8052 6.33496 22.8883C6.33496 24.9714 8.03144 26.6601 10.1242 26.6601Z" stroke="#14A077" stroke-width="2px" stroke-miterlimit="10" stroke-linecap="round" stroke-linejoin="round" fill="none"></path><path d="M8.59724 31.9404L10.1242 35.9951C10.5767 37.1832 11.7078 37.9753 12.9897 37.9753H18.3624C19.2484 37.9753 19.9648 37.2586 19.9648 36.3723C19.9648 35.5613 19.3616 34.8824 18.5509 34.7881L14.4036 34.2789C14.1019 34.2412 13.838 34.0337 13.7626 33.732C13.5175 32.8079 12.952 30.8277 12.3676 29.6962C11.6135 28.1874 10.8594 26.6787 8.20135 26.6787C4.78919 26.6787 4.03512 28.9418 3.28106 31.9592C2.52699 34.9767 1 41.0116 1 41.0116" stroke="#14A077" stroke-width="2px" stroke-miterlimit="10" stroke-linecap="round" stroke-linejoin="round" fill="none"></path><path d="M10.8778 37.221L10.1426 40.9928" stroke="#14A077" stroke-width="2px" stroke-miterlimit="10" stroke-linecap="round" stroke-linejoin="round" fill="none"></path><path d="M15.4209 37.9753H39.5511" stroke="#14A077" stroke-width="2px" stroke-miterlimit="10" stroke-linecap="round" stroke-linejoin="round" fill="none"></path><path d="M24.452 8.55534C25.7117 8.55534 26.733 7.54212 26.733 6.29226C26.733 5.04239 25.7117 4.02917 24.452 4.02917C23.1922 4.02917 22.1709 5.04239 22.1709 6.29226C22.1709 7.54212 23.1922 8.55534 24.452 8.55534Z" stroke="#14A077" stroke-width="2px" stroke-miterlimit="10" stroke-linecap="round" stroke-linejoin="round" fill="none"></path><path d="M20.7002 13.8358V12.9871C20.7002 9.66792 22.4346 8.55524 24.0935 8.55524H24.8476C26.5065 8.55524 28.2409 9.66792 28.2409 12.9871V13.8358" stroke="#14A077" stroke-width="2px" stroke-miterlimit="10" stroke-linecap="round" stroke-linejoin="round" fill="none"></path><path d="M11.6504 10.0641V3.2748C11.6504 2.03011 12.6684 1.01172 13.9126 1.01172H23.7155" stroke="#14A077" stroke-width="2px" stroke-miterlimit="10" stroke-linecap="round" stroke-linejoin="round" fill="none"></path><path d="M11.6504 10.0641V14.5902C11.6504 15.8349 12.6684 16.8533 13.9126 16.8533H28.2399L32.7643 21.3795V16.8533H35.7806C37.0248 16.8533 38.0428 15.8349 38.0428 14.5902V3.2748C38.0428 2.03011 37.0248 1.01172 35.7806 1.01172H23.7155" stroke="#14A077" stroke-width="2px" stroke-miterlimit="10" stroke-linecap="round" stroke-linejoin="round" fill="none"></path><path d="M22.208 34.2035L25.9783 24.3969H40.3056L36.5353 34.2035H22.208Z" stroke="#14A077" stroke-width="2px" stroke-miterlimit="10" stroke-linecap="round" stroke-linejoin="round" fill="none"></path><path d="M28.9951 37.9753V34.2035" stroke="#14A077" stroke-width="2px" stroke-miterlimit="10" stroke-linecap="round" stroke-linejoin="round" fill="none"></path></svg>